<svg fill="none" height="100" viewBox="0 0 100 100" width="100" xmlns="http://www.w3.org/2000/svg"><path d="m13 27c-.5304 0-1.0391.2107-1.4142.5858s-.5858.8838-.5858 1.4142.2107 1.0391.5858 1.4142.8838.5858 1.4142.5858 1.0391-.2107 1.4142-.5858.5858-.8838.5858-1.4142-.2107-1.0391-.5858-1.4142-.8838-.5858-1.4142-.5858z" fill="#ee3e54"/><path d="m77 12c-.2652 0-.5196.1054-.7071.2929s-.2929.4419-.2929.7071.1054.5196.2929.7071.4419.2929.7071.2929.5196-.1054.7071-.2929.2929-.4419.2929-.7071-.1054-.5196-.2929-.7071-.4419-.2929-.7071-.2929z" fill="#f1bc19"/><path d="m50 13c-9.813 0-19.2241 3.8982-26.163 10.837-6.9388 6.9389-10.837 16.35-10.837 26.163s3.8982 19.2241 10.837 26.1629c6.9389 6.9389 16.35 10.8371 26.163 10.8371s19.2241-3.8982 26.1629-10.8371c6.9389-6.9388 10.8371-16.3499 10.8371-26.1629s-3.8982-19.2241-10.8371-26.163c-6.9388-6.9388-16.3499-10.837-26.1629-10.837z" fill="#fce0a2"/><path d="m83 11c-1.0609 0-2.0783.4214-2.8284 1.1716-.7502.7501-1.1716 1.7675-1.1716 2.8284s.4214 2.0783 1.1716 2.8284c.7501.7502 1.7675 1.1716 2.8284 1.1716s2.0783-.4214 2.8284-1.1716c.7502-.7501 1.1716-1.7675 1.1716-2.8284s-.4214-2.0783-1.1716-2.8284c-.7501-.7502-1.7675-1.1716-2.8284-1.1716z" fill="#f1bc19"/><path d="m87 22c-.5304 0-1.0391.2107-1.4142.5858s-.5858.8838-.5858 1.4142.2107 1.0391.5858 1.4142.8838.5858 1.4142.5858 1.0391-.2107 1.4142-.5858.5858-.8838.5858-1.4142-.2107-1.0391-.5858-1.4142-.8838-.5858-1.4142-.5858z" fill="#ee3e54"/><path d="m81 74c-.5304 0-1.0391.2107-1.4142.5858s-.5858.8838-.5858 1.4142.2107 1.0391.5858 1.4142.8838.5858 1.4142.5858 1.0391-.2107 1.4142-.5858.5858-.8838.5858-1.4142-.2107-1.0391-.5858-1.4142-.8838-.5858-1.4142-.5858zm-66-15c-1.0609 0-2.0783.4214-2.8284 1.1716-.7502.7501-1.1716 1.7675-1.1716 2.8284s.4214 2.0783 1.1716 2.8284c.7501.7502 1.7675 1.1716 2.8284 1.1716s2.0783-.4214 2.8284-1.1716c.7502-.7501 1.1716-1.7675 1.1716-2.8284s-.4214-2.0783-1.1716-2.8284c-.7501-.7502-1.7675-1.1716-2.8284-1.1716z" fill="#fbcd59"/><path d="m25 85c-.5304 0-1.0391.2107-1.4142.5858s-.5858.8838-.5858 1.4142.2107 1.0391.5858 1.4142.8838.5858 1.4142.5858 1.0391-.2107 1.4142-.5858.5858-.8838.5858-1.4142-.2107-1.0391-.5858-1.4142-.8838-.5858-1.4142-.5858z" fill="#ee3e54"/><path d="m21 66c-.2652 0-.5196.1054-.7071.2929s-.2929.4419-.2929.7071.1054.5196.2929.7071.4419.2929.7071.2929.5196-.1054.7071-.2929.2929-.4419.2929-.7071-.1054-.5196-.2929-.7071-.4419-.2929-.7071-.2929z" fill="#f1bc19"/><path d="m80 33c-.2652 0-.5196.1054-.7071.2929s-.2929.4419-.2929.7071.1054.5196.2929.7071.4419.2929.7071.2929.5196-.1054.7071-.2929.2929-.4419.2929-.7071-.1054-.5196-.2929-.7071-.4419-.2929-.7071-.2929z" fill="#fff"/><path d="m66.5013 66.3887 1.009 2.046 2.256.327-1.632 1.592.385 2.247-2.018-1.062-2.018 1.062.385-2.247-1.632-1.592 2.256-.327z" fill="#f1bc19"/><path d="m68.52 72.9982c-.064 0-.126-.015-.185-.045l-1.833-.964-1.833.964c-.134.071-.295.059-.419-.029-.121-.088-.183-.239-.158-.389l.351-2.042-1.484-1.445c-.109-.107-.147-.263-.101-.407s.17-.248.32-.27l2.051-.298.918-1.857c.133-.27.579-.27.711 0l.918 1.857 2.05.298c.15.023.273.126.32.27s.008.302-.101.407l-1.483 1.445.351 2.042c.025.15-.035.301-.158.389-.072.048-.154.074-.235.074zm-2.019-1.855c.064 0 .127.015.185.045l1.306.686-.25-1.454c-.023-.129.02-.26.115-.353l1.056-1.03-1.46-.212c-.128-.019-.24-.101-.298-.217l-.653-1.323-.653 1.323c-.058.117-.169.199-.298.217l-1.461.212 1.057 1.03c.094.092.136.222.115.353l-.25 1.454 1.306-.686c.056-.03.12-.045.183-.045z" fill="#472b29"/><path d="m54.5013 21.3887 1.009 2.046 2.256.327-1.632 1.592.385 2.247-2.018-1.062-2.018 1.062.385-2.247-1.632-1.592 2.256-.327z" fill="#f1bc19"/><path d="m56.52 27.9982c-.064 0-.126-.015-.185-.045l-1.833-.964-1.833.964c-.134.071-.295.059-.419-.029-.121-.088-.183-.239-.158-.389l.351-2.042-1.484-1.445c-.109-.107-.147-.263-.101-.407.047-.144.17-.248.32-.27l2.051-.298.918-1.857c.133-.27.579-.27.711 0l.918 1.857 2.05.298c.15.023.273.126.32.27s.008.302-.101.407l-1.483 1.445.351 2.042c.025.15-.035.301-.158.389-.072.048-.154.074-.235.074zm-2.019-1.855c.064 0 .127.015.185.045l1.306.686-.25-1.454c-.023-.129.02-.26.115-.353l1.056-1.03-1.46-.212c-.128-.019-.24-.101-.298-.217l-.653-1.323-.653 1.323c-.058.117-.169.199-.298.217l-1.461.212 1.057 1.03c.094.092.136.222.115.353l-.25 1.454 1.306-.686c.056-.03.12-.045.183-.045z" fill="#472b29"/><path d="m26.0268 33.377 1.318 2.673 2.949.427-2.134 2.081.504 2.938-2.637-1.388-2.639 1.388.504-2.938-2.134-2.081 2.949-.427z" fill="#f1bc19"/><path d="m28.6636 41.8914c-.064 0-.126-.0149-.185-.0449l-2.454-1.2891-2.452 1.2891c-.135.071-.296.059-.419-.029-.121-.088-.183-.239-.158-.389l.468-2.73-1.985-1.934c-.109-.107-.147-.263-.101-.407.047-.143.17-.248.32-.27l2.744-.399 1.226-2.484c.133-.27.579-.27.711 0l1.227 2.484 2.743.399c.15.023.273.126.32.27s.008.302-.101.407l-1.984 1.934.468 2.73c.025.15-.035.301-.158.389-.066.048-.147.0739-.23.0739zm-2.638-2.1789c.064 0 .126.015.185.045l1.926 1.012-.368-2.144c-.023-.129.02-.2601.115-.3531l1.557-1.5189-2.153-.312c-.128-.019-.24-.1011-.298-.2171l-.964-1.951-.963 1.951c-.058.117-.169.1991-.298.2171l-2.154.312 1.559 1.5189c.094.092.136.2221.115.3531l-.368 2.144 1.925-1.012c.056-.031.121-.045.184-.045z" fill="#472b29"/><path d="m50.1537 57.734c-.12-.166-.306-.271-.51-.288l-8.478-.699 2.986-7.593c.077-.195.062-.414-.041-.598l-5.391-9.64 43.838 2.865-28.593 21.234z" fill="#88cdd7"/><path d="m39.9595 39.6998 40.651 2.657-26.493 19.674-3.396-4.705c-.24-.332-.612-.542-1.02-.576l-7.539-.622 2.641-6.716c.154-.39.124-.829-.081-1.196zm-2.479-1.565 6.02 10.765-3.331 8.468 9.416.777 4.227 5.856 30.693-22.792z" fill="#472b29"/><path d="m41.3369 56.873 5.966-3.753 35.436-11.37-38.218 6.657z" fill="#77cbd2"/><g fill="#472b29"><path d="m40.9669 57.3302c-.197-.16-.268-.426-.179-.662l3.183-8.467c.073-.196.244-.337.449-.373l38.218-6.657c.309-.054.6.139.673.439.073.301-.099.606-.392.7l-35.367 11.347-5.902 3.716c-.128.08-.278.107-.42.08-.095-.018-.187-.059-.263-.123zm3.985-8.401-2.45 6.517 4.486-2.824c.043-.026.087-.046.135-.061l27.333-8.77z"/><path d="m41.2292 57.4535c.14.026.289.001.42-.08l5.902-3.716 35.366-11.346c.294-.094.465-.399.392-.699-.072-.299-.361-.494-.669-.442l-38.635 6.463c-.321.053-.537.357-.483.678.052.321.353.538.678.483l30.63-5.125-27.71 8.891c-.047.015-.092.036-.135.061l-5.965 3.754c-.275.174-.358.537-.184.812.093.146.237.237.393.266z"/><path d="m50.2021 58.5646c.139.026.287.001.417-.079.276-.171.361-.533.19-.81l-3.008-4.866c-.173-.275-.534-.361-.81-.19s-.361.533-.19.81l3.008 4.866c.092.146.236.24.393.269zm4.014-11.579c-.567 1.521-1.132 3.044-1.699 4.565-.132.354-.66.096-.529-.257.567-1.521 1.132-3.044 1.699-4.565.132-.353.661-.095.529.257zm3.097-.644c-.484 1.416-.967 2.83-1.45 4.246-.122.357-.651.098-.529-.257.484-1.416.967-2.83 1.45-4.246.121-.356.65-.097.529.257zm3.375-.612c-.497 1.263-.995 2.525-1.492 3.789-.139.351-.668.094-.529-.257.497-1.263.995-2.525 1.492-3.789.138-.351.667-.093.529.257zm3.563-.603c-.428 1.034-.823 2.081-1.251 3.114-.145.35-.674.092-.529-.257.428-1.034.823-2.081 1.251-3.114.144-.349.674-.092.529.257zm3.3001-.555c-.336.814-.6711 1.627-1.0071 2.44-.145.35-.674.092-.529-.257.336-.814.6711-1.627 1.0071-2.44.144-.351.673-.094.529.257zm3.8089-.617c-.214.601-.426 1.201-.64 1.802-.127.356-.6559.097-.5289-.257.214-.601.426-1.201.64-1.802.125-.356.6539-.097.5289.257zm-20.34 3.483c-.611 1.599-1.221 3.199-1.832 4.798-.135.353-.664.095-.529-.257.611-1.599 1.221-3.199 1.832-4.798.134-.353.663-.096.529.257z"/><path d="m47.6351 47.9027c-.797 2.143-1.594 4.284-2.392 6.427-.132.354-.66.096-.529-.257.797-2.143 1.594-4.284 2.392-6.427.131-.354.66-.096.529.257z"/><path d="m21.5388 61.7752c-.121 0-.241-.043-.337-.131-.204-.186-.219-.502-.033-.706 2.229-2.444 4.931-2.653 7.276-2.535.276.014.488.248.475.524-.014.274-.262.51-.524.474-3.041-.147-4.917.488-6.487 2.211-.099.109-.234.163-.37.163zm9.513-2.178c-.336 0-.669-.019-.997-.055-.274-.03-.472-.277-.442-.552s.272-.46.552-.442c.882.098 1.812.046 2.759-.151.269-.06.535.116.592.387s-.117.535-.387.592c-.702.146-1.397.221-2.077.221zm3.875-.786c-.199 0-.387-.119-.465-.315-.102-.257.024-.548.281-.649 1.295-.513 2.135-1.109 2.143-1.115.225-.16.537-.109.698.115s.11.536-.114.697c-.038.026-.941.671-2.358 1.232-.061.024-.123.035-.185.035zm-11.854 6.646c-.123 0-.246-.045-.342-.136-.201-.188-.211-.505-.022-.707 2.273-2.421 5.195-2.259 8.015-2.102 2.692.145 5.237.288 7.359-1.61.206-.185.522-.168.706.038s.167.522-.039.706c-2.431 2.177-5.305 2.018-8.081 1.864-2.713-.148-5.277-.291-7.231 1.789-.099.105-.231.158-.365.158zm-2.794-8.383c-.123 0-.246-.045-.342-.136-.201-.188-.211-.505-.022-.707 2.273-2.419 5.192-2.257 8.015-2.102 2.695.149 5.237.29 7.359-1.609.205-.185.522-.166.706.038.184.206.167.522-.039.706-2.431 2.176-5.304 2.015-8.082 1.864-2.709-.149-5.275-.292-7.231 1.788-.098.105-.23.158-.364.158z"/></g></svg>