<svg width="40" height="40" viewBox="0 0 40 40" fill="none" xmlns="http://www.w3.org/2000/svg">
<circle cx="20" cy="20" r="20" fill="white"/>
<mask id="mask0_218_18" style="mask-type:alpha" maskUnits="userSpaceOnUse" x="2" y="2" width="36" height="36">
<rect x="2" y="2" width="36" height="36" fill="#D9D9D9"/>
</mask>
<g mask="url(#mask0_218_18)">
<path d="M9.06108 11.432C8.78552 11.3287 8.64774 11.1564 8.64774 10.9498C8.64774 10.5709 9.7557 10.2609 10.944 10.3757C11.212 9.68499 11.6866 9.09381 12.3031 8.68284C12.9195 8.27187 13.6478 8.06114 14.3885 8.07941C15.205 8.09958 15.9922 8.38749 16.6291 8.89886C17.266 9.41022 17.7172 10.1167 17.9133 10.9096C18.6366 10.5996 19.9455 10.4963 19.9455 10.7718C19.9455 10.9096 19.8881 10.9785 19.6757 11.1162C19.1097 11.4298 18.6397 11.8914 18.3161 12.4517C17.9924 13.0119 17.8274 13.6497 17.8386 14.2966C17.8386 16.0533 18.9466 17.5401 20.5712 17.5401C22.1958 17.5401 23.3267 16.0475 23.3267 14.2966C23.3476 13.6934 23.201 13.0962 22.903 12.5713C22.6051 12.0464 22.1676 11.6143 21.639 11.3229C21.4323 11.1851 21.2256 11.0474 21.2256 10.9096C21.2256 10.4618 22.5345 10.5307 23.189 10.7718C23.3299 10.0693 23.7102 9.43742 24.2651 8.98409C24.82 8.53076 25.515 8.28405 26.2315 8.28608C26.9583 8.29796 27.657 8.56867 28.2021 9.04955C28.7472 9.53043 29.1029 10.19 29.2052 10.9096C29.6875 10.6685 31.1743 10.8407 31.1743 11.2196C31.1743 11.4262 30.8873 11.5296 30.6002 11.6674C28.0571 12.8499 21.0132 18.9982 21.0132 23.5506C21.0132 27.1099 23.8836 30.2099 25.2269 30.7036C25.6862 30.8758 25.7436 31.048 25.7436 31.1513C25.7436 31.4958 24.8423 31.7713 23.7343 31.5302C23.5102 32.2961 23.042 32.9678 22.401 33.4431C21.7601 33.9185 20.9814 34.1715 20.1835 34.1637C19.3855 34.1559 18.6119 33.8877 17.9804 33.3999C17.3489 32.9121 16.8939 32.2314 16.6847 31.4613C15.5366 31.668 14.4459 31.5647 14.4459 31.1858C14.4459 31.048 14.5148 30.9102 14.9281 30.738C16.4207 30.118 19.8651 27.5232 19.8651 23.6195C19.8651 18.9868 13.3666 13.0451 9.04959 11.4205L9.06108 11.432ZM2 19.9971C2.00152 15.2245 3.89813 10.6477 7.27292 7.27292C10.6477 3.89813 15.2245 2.00152 19.9971 2C24.7708 2 29.349 3.89594 32.7251 7.27089C36.1011 10.6458 37.9985 15.2235 38 19.9971C38 24.7718 36.1033 29.3509 32.7271 32.7271C29.3509 36.1033 24.7718 38 19.9971 38C15.2235 37.9985 10.6458 36.1011 7.27089 32.7251C3.89594 29.349 2 24.7708 2 19.9971H2ZM9.34811 9.34811C7.9456 10.7437 6.83339 12.4033 6.07568 14.2311C5.31798 16.0588 4.92978 18.0185 4.9335 19.9971C4.92966 21.9766 5.31777 23.9372 6.07546 25.7659C6.83315 27.5946 7.94542 29.2552 9.34811 30.6519C10.7437 32.0544 12.4033 33.1666 14.2311 33.9243C16.0588 34.682 18.0185 35.0702 19.9971 35.0665C21.9767 35.071 23.9375 34.6831 25.7663 33.9254C27.5951 33.1677 29.2556 32.0551 30.6519 30.6519C32.0536 29.2544 33.1652 27.5937 33.9228 25.7652C34.6804 23.9367 35.0691 21.9764 35.0665 19.9971C35.069 18.0187 34.6802 16.0594 33.9226 14.2318C33.1649 12.4042 32.0534 10.7445 30.6519 9.34811C29.2556 7.94491 27.5951 6.8323 25.7663 6.07458C23.9375 5.31685 21.9767 4.92902 19.9971 4.9335C18.0185 4.92978 16.0588 5.31798 14.2311 6.07568C12.4033 6.83339 10.7437 7.9456 9.34811 9.34811V9.34811ZM52.1968 20.2153L53.4138 18.2405C53.6205 17.896 54.2328 16.8168 55.2508 15.0027L55.9168 13.7972H57.4381V14.2277L54.9121 17.9305L53.2473 20.6688C53.1229 20.8968 53.0284 21.1399 52.966 21.3921C52.9186 21.6321 52.8993 21.8768 52.9086 22.1212V23.7516L52.966 25.5427C52.9652 25.7744 53.008 26.0042 53.0923 26.2201C53.1688 26.3047 53.2687 26.3647 53.3794 26.3923C53.8033 26.4523 54.2315 26.4772 54.6596 26.4669V27.328L51.3701 27.2591L48.4309 27.3165V26.4554C48.8629 26.4563 49.2945 26.4275 49.7225 26.3693C49.823 26.3539 49.9147 26.303 49.9809 26.2258C50.0544 26.0436 50.0896 25.8482 50.0842 25.6517L50.1416 23.7745V21.9375C50.0769 21.6113 49.9524 21.2998 49.7742 21.019L47.8224 17.7468C47.3616 17.0021 46.8393 16.2974 46.2609 15.6399C46.0614 15.4004 45.8295 15.1898 45.572 15.0142C45.2927 14.9569 45.0069 14.9376 44.7224 14.9568V14.2277L46.7718 13.8259L47.8453 13.5618C48.1533 13.7197 48.4422 13.9123 48.7064 14.1359C48.9827 14.4337 49.2306 14.7565 49.447 15.1003C49.9578 15.8716 50.4217 16.6729 50.8362 17.4999L52.1968 20.2153ZM70.3948 25.5714L69.9528 26.5473C69.2671 26.9241 68.5385 27.217 67.7828 27.4199C66.9933 27.5938 66.1858 27.6728 65.3775 27.6552C64.1396 27.6794 62.909 27.461 61.7551 27.0123C60.9716 26.6917 60.258 26.2218 59.654 25.6288C59.104 25.0923 58.6566 24.4601 58.3336 23.763C57.8583 22.7301 57.6172 21.6049 57.6275 20.4679C57.5966 19.5372 57.7667 18.6108 58.1263 17.7519C58.486 16.8929 59.0266 16.1217 59.7114 15.4907C61.0891 14.2048 63.0486 13.5618 65.5899 13.5618C66.3768 13.5565 67.1626 13.6218 67.9378 13.757C68.7589 13.9206 69.5653 14.151 70.3489 14.4459L70.3948 14.5607C70.2763 14.9344 70.1956 15.319 70.1537 15.7088L69.97 17.7295H69.2237C69.2247 17.1541 69.1921 16.579 69.1261 16.0073C68.7186 15.5694 68.2212 15.2247 67.668 14.997C67.0093 14.7527 66.3092 14.6396 65.6071 14.664C64.9344 14.6328 64.2627 14.7446 63.6363 14.992C63.0099 15.2394 62.4431 15.6167 61.9732 16.0992C61.0046 17.2055 60.5133 18.6503 60.6069 20.1177C60.589 21.0435 60.7448 21.9646 61.0662 22.833C61.3363 23.5505 61.7505 24.2049 62.2832 24.7562C62.7269 25.2131 63.2477 25.5882 63.8217 25.8641C64.6319 26.1944 65.5018 26.3528 66.3763 26.3291C67.0051 26.3321 67.6318 26.2569 68.2421 26.1052C68.9067 25.9257 69.5483 25.6695 70.1537 25.3417L70.3948 25.5714ZM71.52 14.5951V13.7914L74.3904 13.8488L78.7131 13.7627C79.3892 13.7379 80.0645 13.8272 80.7109 14.0268C81.2164 14.2105 81.656 14.5402 81.9739 14.974C82.3422 15.4923 82.5279 16.1183 82.502 16.7536C82.5058 17.4615 82.33 18.1587 81.9911 18.7801C81.6224 19.4365 81.0723 19.9726 80.4066 20.3243C79.7063 20.7206 78.915 20.9283 78.1104 20.9271C77.9185 20.9262 77.7269 20.9147 77.5363 20.8927C77.3411 20.8927 77.1459 20.8353 76.9622 20.7951C76.871 20.5544 76.7556 20.3236 76.6178 20.1062L76.8187 19.8938C76.9503 19.9369 77.0845 19.9714 77.2205 19.9971C77.3341 20.0188 77.4494 20.0304 77.565 20.0316C77.8552 20.0387 78.1436 19.9829 78.4101 19.8679C78.6767 19.753 78.9152 19.5816 79.1092 19.3657C79.5498 18.8233 79.7673 18.1337 79.7178 17.4368C79.7723 16.7152 79.5437 16.0007 79.0805 15.4447C78.8467 15.2159 78.5676 15.0384 78.2611 14.9237C77.9546 14.809 77.6276 14.7597 77.3009 14.7788C76.8959 14.7822 76.4922 14.8245 76.0954 14.9051C76.0609 15.307 76.038 15.8925 76.038 16.6675L76.0093 18.562V22.2245L76.0437 25.026C76.0412 25.3829 76.0778 25.7391 76.1528 26.088C76.1791 26.1571 76.2249 26.2169 76.2848 26.2602C76.3855 26.3227 76.4997 26.3601 76.6178 26.3693L77.9209 26.4554V27.3165C76.2752 27.2783 75.0352 27.2591 74.2009 27.2591L71.5774 27.3165V26.4554C72.035 26.4825 72.4937 26.4281 72.9322 26.2947C72.9919 26.2596 73.0398 26.2077 73.07 26.1454C73.1399 25.9186 73.1748 25.6824 73.1733 25.4451C73.2499 24.4117 73.2882 23.2636 73.2882 22.0006V18.5907L73.1963 16.7708L73.1504 15.3127C73.1488 15.1682 73.1175 15.0256 73.0585 14.8936C73.0291 14.8391 72.9854 14.7934 72.9322 14.7616C72.8277 14.7078 72.7153 14.671 72.5993 14.6525L71.52 14.5951ZM97.9043 17.3277H97.1006C97.1029 16.798 97.0703 16.2687 97.003 15.7433C96.7305 15.4038 96.3716 15.144 95.964 14.9912C95.4413 14.7622 94.8754 14.6486 94.3049 14.6583C93.567 14.6102 92.839 14.8487 92.2727 15.3242C92.0473 15.515 91.8659 15.7523 91.7411 16.0199C91.6162 16.2874 91.5508 16.5789 91.5494 16.8742C91.5451 17.2299 91.6175 17.5823 91.7618 17.9075C91.892 18.1664 92.0905 18.3847 92.3358 18.539C92.6849 18.7287 93.0574 18.8715 93.4438 18.9638L96.3141 19.4919C96.7551 19.5971 97.18 19.7613 97.5771 19.9799C97.8734 20.1487 98.1346 20.3728 98.3464 20.6401C98.5541 20.9237 98.7132 21.24 98.8171 21.5758C98.9436 21.9886 99.0056 22.4185 99.0008 22.8503C99.0174 23.6059 98.8395 24.3532 98.4841 25.0203C98.2105 25.5126 97.8485 25.9505 97.4164 26.3119C96.9957 26.6785 96.5189 26.975 96.0042 27.1902C95.1127 27.5153 94.1685 27.671 93.2199 27.6495C92.5077 27.6599 91.7967 27.5867 91.1016 27.4313C90.4011 27.2541 89.7217 27.002 89.0751 26.6793C89.308 25.5756 89.412 24.4487 89.3851 23.321H90.1888C90.1837 23.8969 90.2201 24.4725 90.2979 25.0432C90.6088 25.5097 91.0444 25.8797 91.5551 26.111C92.1577 26.4176 92.8251 26.5751 93.5012 26.5702C94.0638 26.5807 94.622 26.4691 95.1373 26.243C95.5636 26.0583 95.9182 25.7399 96.1477 25.336C96.3696 24.9422 96.4826 24.4963 96.4749 24.0443C96.4837 23.6826 96.4049 23.3242 96.2453 22.9995C96.0964 22.7056 95.8623 22.4635 95.5736 22.3049C95.0239 22.0536 94.4455 21.8704 93.8514 21.7595L91.5551 21.2314C91.0604 21.0912 90.6034 20.8421 90.2175 20.5023C89.8775 20.1851 89.6178 19.7915 89.4597 19.3542C89.2874 18.8916 89.2018 18.4012 89.2072 17.9075C89.1992 17.2152 89.3545 16.5307 89.6607 15.9097C89.9287 15.3412 90.3427 14.8539 90.8605 14.4975C91.3704 14.1522 91.9411 13.9068 92.5425 13.7742C93.1733 13.6294 93.8184 13.5563 94.4656 13.5561C95.132 13.5555 95.797 13.617 96.4519 13.7398C97.0279 13.844 97.5876 14.0235 98.1167 14.2736L98.1971 14.5033C98.1092 14.911 98.0421 15.323 97.9962 15.7375L97.9043 17.3334V17.3277ZM100.867 22.7584C100.837 21.8185 101.034 20.8853 101.441 20.0373C101.807 19.3252 102.398 18.7541 103.123 18.4127C103.94 18.0327 104.834 17.8461 105.735 17.8673C106.349 17.8209 106.967 17.8986 107.551 18.0959C108.135 18.2931 108.673 18.6059 109.133 19.0155C109.544 19.4841 109.858 20.0303 110.055 20.6218C110.252 21.2133 110.329 21.8382 110.281 22.4599C110.297 23.2275 110.182 23.9922 109.943 24.7217C109.756 25.2961 109.446 25.823 109.036 26.266C108.69 26.6282 108.284 26.9274 107.836 27.1501C107.077 27.4919 106.251 27.6624 105.419 27.6495C104.802 27.6894 104.183 27.5996 103.603 27.3861C103.022 27.1725 102.493 26.8399 102.049 26.4095C101.257 25.5886 100.867 24.3888 100.867 22.7584V22.7584ZM103.542 22.2992C103.542 24.0099 103.79 25.2307 104.288 25.9617C104.446 26.1948 104.66 26.3836 104.911 26.5103C105.163 26.6369 105.442 26.6971 105.723 26.6851C105.963 26.6923 106.201 26.6442 106.419 26.5447C106.637 26.4451 106.829 26.2967 106.98 26.111C107.394 25.623 107.595 24.6758 107.595 23.2406C107.609 22.3882 107.526 21.5369 107.348 20.7032C107.266 20.15 107.013 19.6363 106.624 19.2336C106.308 18.9539 105.898 18.8042 105.476 18.8145C105.114 18.8088 104.759 18.9151 104.46 19.1188C104.13 19.3801 103.893 19.7403 103.783 20.1464C103.589 20.8467 103.505 21.5731 103.536 22.2992H103.542ZM117.055 26.5473V27.3223C116.24 27.2591 115.408 27.2591 114.518 27.2591L111.561 27.3395V26.5588C111.932 26.5578 112.302 26.531 112.669 26.4784C112.751 26.4624 112.826 26.4247 112.888 26.3693C112.941 26.3027 112.976 26.2237 112.991 26.1397C113.061 25.5338 113.094 24.9241 113.089 24.3141L113.117 21.5873V18.3955C113.117 17.3851 113.094 16.4609 113.048 15.6227C113.047 15.3519 113.014 15.0822 112.951 14.819C112.927 14.7736 112.888 14.7373 112.842 14.7157C112.729 14.6503 112.604 14.6093 112.474 14.5951C112.382 14.5951 112.09 14.5664 111.613 14.5492V13.8259C112.255 13.7685 112.893 13.6766 113.525 13.5503C114.001 13.4527 114.673 13.2748 115.448 13.0336L115.655 13.1485L115.574 15.1003L115.517 19.1188V23.6941L115.574 25.7838C115.573 25.9391 115.594 26.0938 115.637 26.243C115.658 26.2898 115.692 26.3296 115.735 26.3578C115.826 26.4182 115.93 26.4556 116.039 26.4669C116.123 26.486 116.464 26.5128 117.061 26.5473H117.055ZM118.307 27.3165V26.5989C118.724 26.5968 119.139 26.5388 119.541 26.4267C119.597 26.3887 119.644 26.3385 119.678 26.2798C119.711 26.2211 119.731 26.1556 119.736 26.088C119.825 25.1781 119.858 24.2636 119.834 23.3497C119.867 22.2007 119.837 21.0508 119.742 19.9053C119.736 19.8086 119.693 19.7181 119.621 19.6527C119.195 19.5261 118.75 19.4794 118.307 19.5149V18.7858C119.045 18.7182 119.779 18.6089 120.506 18.4586C121.061 18.3253 121.604 18.1467 122.13 17.9247L122.36 18.051L122.245 20.8869V24.1706C122.221 24.8356 122.246 25.5014 122.32 26.1627C122.325 26.2113 122.342 26.2581 122.369 26.299C122.396 26.3399 122.432 26.3738 122.475 26.398C122.887 26.5159 123.315 26.5701 123.743 26.5588V27.3165C122.825 27.3165 121.832 27.2764 120.758 27.2764C119.84 27.2534 119.013 27.2878 118.307 27.3165V27.3165ZM120.948 13.3092C121.143 13.3051 121.338 13.3418 121.519 13.4169C121.7 13.492 121.863 13.6039 121.998 13.7455C122.273 14.0248 122.428 14.4011 122.428 14.7932C122.428 15.1853 122.273 15.5616 121.998 15.8409C121.861 15.9792 121.698 16.089 121.518 16.1639C121.338 16.2389 121.145 16.2774 120.95 16.2774C120.756 16.2774 120.563 16.2389 120.383 16.1639C120.203 16.089 120.04 15.9792 119.903 15.8409C119.765 15.7033 119.656 15.54 119.581 15.3602C119.507 15.1805 119.469 14.9878 119.469 14.7932C119.469 14.5986 119.507 14.4059 119.581 14.2261C119.656 14.0464 119.765 13.883 119.903 13.7455C120.037 13.6046 120.2 13.4931 120.379 13.4181C120.559 13.343 120.753 13.3059 120.948 13.3092V13.3092ZM135.827 26.6277V27.328L133.801 27.2936L132.079 27.328L131.993 27.2476L132.039 26.4841V25.6919L130.58 26.9549C130.389 27.1334 130.186 27.2984 129.972 27.4486C129.658 27.5561 129.327 27.6048 128.996 27.5921C128.494 27.6039 127.995 27.5045 127.535 27.3011C127.076 27.0976 126.667 26.7951 126.338 26.4152C125.59 25.5171 125.212 24.3674 125.282 23.2004C125.271 22.5161 125.376 21.8349 125.592 21.1855C125.708 20.8079 125.891 20.4541 126.131 20.1406C126.531 19.7563 126.968 19.4121 127.435 19.1131C127.915 18.7499 128.433 18.4382 128.979 18.1831C129.371 18.0512 129.783 17.9909 130.196 18.0051C130.454 17.9988 130.712 18.02 130.965 18.0683C131.321 18.1662 131.67 18.287 132.01 18.4299L132.039 17.2416L131.993 15.462C132.004 15.246 131.967 15.0302 131.884 14.8305C131.838 14.7667 131.771 14.7218 131.694 14.7042C131.608 14.7042 131.212 14.6697 130.506 14.6468V13.9407C131.808 13.818 133.091 13.5345 134.323 13.0968L134.57 13.2403C134.494 14.9625 134.455 15.9767 134.455 16.2829C134.432 17.9668 134.423 20.3205 134.427 23.344V24.2395L134.473 25.6632C134.467 25.8873 134.5 26.1106 134.57 26.3234C134.62 26.4089 134.7 26.4725 134.794 26.5014C135.136 26.5739 135.484 26.6161 135.833 26.6277H135.827ZM132.01 20.4506C131.774 20.1306 131.489 19.8496 131.166 19.6182C130.739 19.3751 130.256 19.2484 129.765 19.2508C129.375 19.2331 128.991 19.3485 128.675 19.5781C128.357 19.8506 128.137 20.2195 128.049 20.6286C127.901 21.1729 127.829 21.7352 127.836 22.2992C127.775 23.2639 128.042 24.2209 128.594 25.0145C128.771 25.2428 129 25.4258 129.261 25.5486C129.523 25.6714 129.81 25.7303 130.098 25.7206C130.551 25.7282 130.993 25.5848 131.355 25.313C131.646 25.1278 131.869 24.8541 131.993 24.5323C132.085 23.7706 132.117 23.0028 132.09 22.236L132.01 20.4506ZM136.987 27.3165V26.5989C137.406 26.5971 137.823 26.5392 138.227 26.4267C138.283 26.3887 138.33 26.3385 138.364 26.2798C138.397 26.2211 138.417 26.1556 138.422 26.088C138.508 25.1779 138.539 24.2635 138.514 23.3497C138.548 22.2008 138.519 21.051 138.428 19.9053C138.426 19.8567 138.413 19.8092 138.391 19.7657C138.37 19.7222 138.339 19.6837 138.302 19.6527C137.876 19.5251 137.43 19.4783 136.987 19.5149V18.7858C137.728 18.7186 138.463 18.6093 139.192 18.4586C139.747 18.3253 140.29 18.1467 140.816 17.9247L141.046 18.051L140.931 20.8869V24.1706C140.908 24.8357 140.934 25.5016 141.011 26.1627C141.017 26.2113 141.034 26.2581 141.061 26.299C141.087 26.3399 141.124 26.3738 141.166 26.398C141.579 26.5159 142.006 26.5701 142.435 26.5588V27.3165C141.517 27.3165 140.523 27.2764 139.45 27.2764C138.52 27.2534 137.705 27.2878 136.993 27.3165H136.987ZM139.639 13.3092C139.835 13.3051 140.03 13.3418 140.21 13.4169C140.391 13.492 140.555 13.6039 140.69 13.7455C140.965 14.0248 141.119 14.4011 141.119 14.7932C141.119 15.1853 140.965 15.5616 140.69 15.8409C140.482 16.0465 140.217 16.1862 139.93 16.2423C139.643 16.2984 139.345 16.2685 139.075 16.1563C138.805 16.0441 138.574 15.8547 138.411 15.6117C138.247 15.3687 138.16 15.083 138.158 14.7903C138.156 14.5961 138.192 14.4033 138.266 14.2237C138.34 14.0441 138.45 13.8814 138.589 13.7455C138.724 13.6039 138.887 13.492 139.068 13.4169C139.249 13.3418 139.444 13.3051 139.639 13.3092V13.3092ZM152.361 26.5932V27.3223L150.386 27.2649L148.813 27.3223L148.727 27.2075L148.813 25.9445C148.583 26.0938 147.894 26.6047 146.764 27.4715C146.491 27.5363 146.211 27.5691 145.931 27.5691C145.629 27.586 145.327 27.5401 145.043 27.4344C144.76 27.3286 144.501 27.1654 144.284 26.9549C143.867 26.4593 143.661 25.8206 143.709 25.1753C143.693 24.731 143.786 24.2895 143.979 23.8893C144.116 23.6047 144.312 23.3523 144.553 23.1488C144.841 22.9469 145.159 22.7919 145.495 22.6895C146.584 22.3113 147.704 22.0271 148.842 21.8399C148.897 21.2181 148.728 20.5969 148.365 20.089C148.171 19.8842 147.932 19.7262 147.668 19.6268C147.403 19.5274 147.12 19.4891 146.838 19.5149C146.571 19.5138 146.304 19.5486 146.046 19.6182C145.91 19.6658 145.78 19.7314 145.661 19.8134L145.259 20.7893L144.605 20.6458L144.662 19.3944L146.023 18.5562C146.3 18.3688 146.594 18.2074 146.901 18.074C147.232 17.9949 147.572 17.9602 147.912 17.9707C148.501 17.9503 149.087 18.054 149.634 18.2749C150.022 18.4296 150.366 18.6758 150.639 18.9925C150.847 19.2543 150.998 19.5576 151.081 19.8823C151.174 20.2751 151.217 20.6784 151.207 21.0821L151.149 22.6895L151.121 24.1132C151.107 24.8181 151.153 25.523 151.259 26.2201C151.264 26.2687 151.281 26.3155 151.308 26.3564C151.335 26.3973 151.371 26.4312 151.413 26.4554C151.722 26.5393 152.041 26.5836 152.361 26.5875V26.5932ZM148.813 22.6666C148.303 22.7721 147.8 22.9121 147.309 23.0856C146.941 23.1917 146.613 23.4057 146.367 23.6999C146.185 23.9685 146.092 24.2881 146.103 24.6127C146.083 24.959 146.196 25.3001 146.419 25.5656C146.524 25.6784 146.653 25.7671 146.795 25.8256C146.938 25.884 147.092 25.9109 147.246 25.9043C147.556 25.9008 147.859 25.8135 148.124 25.6517C148.402 25.4987 148.639 25.2799 148.813 25.0145V22.6666ZM164.502 26.5702V27.3165L162.355 27.2476L160.69 27.3165L160.518 27.1443C160.518 27.0123 160.576 26.4554 160.645 25.4795L160.69 23.8951V23.1258C160.718 22.381 160.676 21.6353 160.564 20.8984C160.483 20.562 160.293 20.2616 160.025 20.0431C159.711 19.818 159.331 19.7048 158.945 19.7216C158.538 19.702 158.135 19.8147 157.797 20.0431C157.545 20.1993 157.345 20.4272 157.223 20.6975C157.154 21.2092 157.135 21.7264 157.166 22.2417V23.8664L157.2 25.5886C157.194 25.7831 157.221 25.9772 157.281 26.1627C157.303 26.2275 157.348 26.2824 157.407 26.3177C157.548 26.3932 157.702 26.4418 157.86 26.4612C157.935 26.4612 158.205 26.5014 158.664 26.5415V27.2878C157.964 27.2878 157.103 27.2476 156.081 27.2476L153.325 27.2878V26.5415C153.677 26.5613 154.03 26.5245 154.37 26.4325C154.456 26.4061 154.53 26.3489 154.577 26.2717C154.657 26.0473 154.692 25.8093 154.68 25.5714L154.72 24.7103V22.5632L154.663 20.4736C154.685 20.2457 154.676 20.0157 154.634 19.7905C154.596 19.7307 154.536 19.6877 154.468 19.6699C154.107 19.5978 153.739 19.565 153.371 19.5723V18.826L155.667 18.384C156.095 18.2638 156.511 18.1083 156.913 17.919L157.177 18.0338V19.5838L158.934 18.1773C159.106 18.1039 159.285 18.0463 159.468 18.0051C159.669 17.9736 159.873 17.9601 160.076 17.9649C160.603 17.9375 161.13 18.0156 161.626 18.1945C161.963 18.3432 162.262 18.5671 162.499 18.849C162.726 19.1041 162.898 19.403 163.004 19.7273C163.119 20.1966 163.167 20.6797 163.148 21.1625V23.8377L163.205 25.8584C163.204 26.0396 163.265 26.2157 163.377 26.3578C163.552 26.4551 163.751 26.5027 163.951 26.4956L164.502 26.5702ZM173.228 26.0421L172.803 26.9836C172.374 27.2112 171.922 27.394 171.454 27.5289C171.048 27.6209 170.631 27.6633 170.214 27.6552C169.317 27.6935 168.426 27.4808 167.642 27.041C166.976 26.6137 166.454 25.9955 166.144 25.2671C165.871 24.5794 165.746 23.842 165.777 23.1029C165.761 22.5433 165.827 21.9844 165.972 21.4438C166.094 21.0301 166.288 20.6413 166.546 20.2956C166.728 20.0555 166.947 19.8462 167.195 19.6756L168.687 18.7399C169.013 18.5161 169.359 18.3239 169.721 18.1658C170.111 18.0386 170.521 17.9803 170.932 17.9936C171.317 17.9903 171.701 18.0229 172.08 18.0912C172.42 18.1552 172.751 18.2572 173.067 18.3955L173.165 18.5677L172.924 20.1406C172.924 20.2842 172.867 20.7147 172.826 21.4782H172.08C172.058 21.049 172.01 20.6216 171.937 20.1981C171.781 19.9633 171.562 19.778 171.305 19.6642C170.977 19.5169 170.62 19.4463 170.26 19.4575C169.86 19.4415 169.463 19.5348 169.112 19.7273C168.795 19.9404 168.568 20.2636 168.475 20.6343C168.326 21.1372 168.257 21.6601 168.268 22.1843C168.255 22.9309 168.397 23.672 168.687 24.3601C168.905 24.9288 169.287 25.4202 169.784 25.7723C170.285 26.0866 170.869 26.2444 171.46 26.2258C171.75 26.2278 172.04 26.1931 172.321 26.1225C172.589 26.0556 172.848 25.9554 173.09 25.824L173.228 26.0421ZM182.66 25.824L182.258 26.7712C181.749 27.0853 181.198 27.3269 180.622 27.4888C180.154 27.6025 179.674 27.6566 179.193 27.6495C178.623 27.6604 178.054 27.5868 177.505 27.4313C177.058 27.3022 176.636 27.0963 176.259 26.8228C175.908 26.5581 175.602 26.2382 175.352 25.8756C175.079 25.4843 174.884 25.0437 174.778 24.5782C174.502 23.2955 174.559 21.9632 174.945 20.709C175.048 20.3384 175.233 19.9954 175.484 19.7044C175.802 19.4407 176.138 19.199 176.489 18.981C176.865 18.7223 177.258 18.4902 177.666 18.2864C178.169 18.0761 178.711 17.9744 179.256 17.9879C180.003 17.9562 180.744 18.1438 181.386 18.5275C181.903 18.8583 182.304 19.3418 182.534 19.911C182.78 20.5616 182.897 21.2537 182.878 21.949V22.4656C182.637 22.5364 182.391 22.5939 182.144 22.6379C181.85 22.7028 181.553 22.7488 181.254 22.7756L179.342 22.8445H177.092C177.095 23.7385 177.433 24.5988 178.039 25.2556C178.317 25.543 178.651 25.7699 179.02 25.922C179.39 26.0741 179.786 26.1482 180.186 26.1397C180.526 26.1425 180.866 26.102 181.196 26.0191C181.624 25.8972 182.037 25.7318 182.431 25.5254L182.66 25.824ZM180.364 21.8055C180.454 21.0623 180.31 20.3095 179.951 19.6527C179.815 19.4606 179.636 19.3043 179.427 19.1973C179.218 19.0903 178.986 19.0357 178.751 19.0384C178.507 19.0369 178.266 19.0946 178.049 19.2066C177.832 19.3185 177.645 19.4815 177.505 19.6814C177.115 20.3167 176.951 21.0653 177.04 21.8055C177.673 21.8759 178.309 21.9047 178.946 21.8916C179.418 21.9028 179.89 21.8798 180.358 21.8227L180.364 21.8055Z" fill="#001C44"/>
</g>
</svg>
